<?xml version="1.0" encoding="UTF-8"?>
<svg version="1.1" xmlns="http://www.w3.org/2000/svg" width="225" height="225">
<path d="M0 0 C74.25 0 148.5 0 225 0 C225 74.25 225 148.5 225 225 C150.75 225 76.5 225 0 225 C0 150.75 0 76.5 0 0 Z " fill="#000000" transform="translate(0,0)"/>
<path d="M0 0 C0.57492188 0.22816406 1.14984375 0.45632813 1.7421875 0.69140625 C1.1796005 4.15009328 0.3509217 6.76959424 -1.41796875 9.7890625 C-2.10125244 10.96903809 -2.10125244 10.96903809 -2.79833984 12.17285156 C-3.30059082 13.02459961 -3.8028418 13.87634766 -4.3203125 14.75390625 C-5.41829705 16.64564282 -6.51593516 18.5375805 -7.61328125 20.4296875 C-8.20286621 21.44111816 -8.79245117 22.45254883 -9.39990234 23.49462891 C-12.33067476 28.53740605 -15.22531721 33.60080027 -18.11819458 38.66537476 C-19.14048008 40.45482792 -20.16385041 42.24365786 -21.18725586 44.0324707 C-25.63293815 51.80943035 -30.02231942 59.6162853 -34.3828125 67.44140625 C-39.56140711 76.73328038 -44.87450627 85.93830361 -50.25878906 95.11230469 C-55.40289565 103.89342096 -60.36740252 112.76697145 -65.2578125 121.69140625 C-67.08032227 121.66113281 -67.08032227 121.66113281 -69.2578125 120.69140625 C-70.42497872 118.15209108 -71.28802635 115.83038235 -72.09765625 113.17578125 C-72.34649063 112.40897034 -72.59532501 111.64215942 -72.85169983 110.85211182 C-73.64857718 108.38658767 -74.42267346 105.91462165 -75.1953125 103.44140625 C-75.96633684 101.02019145 -76.7420913 98.6005528 -77.51992798 96.18151855 C-78.02905897 94.59753743 -78.53539913 93.01265649 -79.03890991 91.42687988 C-80.89034031 85.6491624 -83.0126413 80.05196451 -85.37719727 74.46191406 C-86.35961688 71.371119 -86.50033487 68.91606619 -86.2578125 65.69140625 C-85.0703125 63.99609375 -85.0703125 63.99609375 -83.2578125 62.56640625 C-82.16146484 61.68662109 -82.16146484 61.68662109 -81.04296875 60.7890625 C-80.12386719 60.09683594 -79.20476562 59.40460938 -78.2578125 58.69140625 C-77.69433105 58.26585449 -77.13084961 57.84030273 -76.55029297 57.40185547 C-73.90528218 55.40715466 -71.25516811 53.41964835 -68.59545898 51.44458008 C-63.92593933 47.97259308 -59.34633179 44.41060603 -54.8203125 40.75390625 C-48.89335716 35.96969415 -42.8807843 31.31232033 -36.8203125 26.69873047 C-31.46496987 22.62015021 -26.13517038 18.51009857 -20.8203125 14.37890625 C-20.06371338 13.79310791 -19.30711426 13.20730957 -18.52758789 12.60375977 C-15.32332484 10.11556478 -12.13829832 7.61911958 -9.04296875 4.99609375 C-8.16511719 4.25617187 -7.28726563 3.51625 -6.3828125 2.75390625 C-5.66351563 2.12613281 -4.94421875 1.49835937 -4.203125 0.8515625 C-2.2578125 -0.30859375 -2.2578125 -0.30859375 0 0 Z " fill="#FB5F09" transform="translate(152.2578125,12.30859375)"/>
<path d="M0 0 C3.32780413 -0.02156245 6.30207867 0.23538832 9.5546875 0.9140625 C13.85572607 11.38116786 17.50776797 22.05399986 21.17456055 32.75610352 C21.97334411 35.08050646 22.77743308 37.40309261 23.58666992 39.72387695 C24.7609266 43.09194596 25.91930772 46.46509965 27.07421875 49.83984375 C27.43868607 50.87635574 27.80315338 51.91286774 28.17866516 52.98078918 C28.50618271 53.94917221 28.83370026 54.91755524 29.17114258 55.9152832 C29.46330154 56.76226273 29.75546051 57.60924225 30.05647278 58.48188782 C30.5546875 60.9140625 30.5546875 60.9140625 29.5546875 65.9140625 C7.4446875 65.9140625 -14.6653125 65.9140625 -37.4453125 65.9140625 C-38.61130819 61.25007973 -38.19917313 60.77157847 -35.90234375 56.79296875 C-35.32895264 55.78540527 -34.75556152 54.7778418 -34.16479492 53.73974609 C-33.22083862 52.12447021 -33.22083862 52.12447021 -32.2578125 50.4765625 C-31.30128784 48.807146 -31.30128784 48.807146 -30.32543945 47.10400391 C-29.01008215 44.810418 -27.68964647 42.51973736 -26.36425781 40.23193359 C-24.09312008 36.30511912 -21.85637751 32.3595921 -19.62402344 28.41064453 C-18.15740195 25.83229131 -16.66596395 23.26953852 -15.171875 20.70703125 C-13.37792763 17.61219154 -11.72020814 14.49413695 -10.15625 11.27734375 C-5.16512314 1.37033879 -5.16512314 1.37033879 0 0 Z " fill="#F95F09" transform="translate(128.4453125,77.0859375)"/>
<path d="M0 0 C16.83 0 33.66 0 51 0 C49.81425592 4.74297633 48.66450815 5.49030297 44.9375 8.5 C44.14545166 9.14304077 44.14545166 9.14304077 43.33740234 9.79907227 C38.3456635 13.81247637 33.21331862 17.64275362 28.07275391 21.46240234 C23.60029 24.78617159 19.18404702 28.16965281 14.8125 31.625 C10.47975495 35.04967744 6.13194209 38.45063454 1.75 41.8125 C-3.68212506 45.98025112 -9.09505403 50.17206086 -14.5 54.375 C-15.64903809 55.26795776 -15.64903809 55.26795776 -16.82128906 56.17895508 C-17.91521973 57.03009888 -17.91521973 57.03009888 -19.03125 57.8984375 C-20.06536011 58.69991211 -20.06536011 58.69991211 -21.12036133 59.51757812 C-22.72793886 60.78543249 -24.2961747 62.10290105 -25.85546875 63.4296875 C-28 65 -28 65 -30.8125 64.75 C-31.8953125 64.37875 -31.8953125 64.37875 -33 64 C-33.87310302 61.58762109 -34.16040964 60.41384885 -33.21826172 57.9831543 C-32.79303223 57.27070557 -32.36780273 56.55825684 -31.9296875 55.82421875 C-31.45184814 55.00783936 -30.97400879 54.19145996 -30.48168945 53.3503418 C-29.68637817 52.03223511 -29.68637817 52.03223511 -28.875 50.6875 C-27.76088304 48.79215766 -26.6476323 46.89630594 -25.53515625 45 C-24.95266113 44.01515625 -24.37016602 43.0303125 -23.77001953 42.015625 C-20.88928934 37.10765544 -18.10284504 32.14723182 -15.3125 27.1875 C-14.30869541 25.41009883 -13.30478924 23.63275503 -12.30078125 21.85546875 C-8.19562622 14.57306947 -4.09846776 7.28616491 0 0 Z " fill="#FA5F09" transform="translate(108,148)"/>
</svg>
